<svg width="118" height="17" viewBox="0 0 118 17" fill="none" xmlns="http://www.w3.org/2000/svg">
<path d="M27.1334 9.53758H24.1658V6.69768H27.2476C28.4605 6.69768 29.0505 7.13549 29.0505 8.0361C29.0505 9.04641 28.4228 9.53758 27.1334 9.53758ZM28.7297 9.86795C29.592 9.48039 29.8644 8.70122 29.8644 8.06053C29.8644 6.63754 28.996 5.94617 27.2099 5.94617H23.3664V13.6298H24.1659V10.2885H27.1978C28.5667 10.2885 28.9127 10.5638 28.9489 11.7577C28.9774 13.0059 29.0931 13.3336 29.2252 13.6301H30.0494C29.8598 13.3034 29.7505 12.6671 29.7388 11.4249C29.7266 10.6644 29.391 10.1108 28.7297 9.86795Z" fill="white"/>
<path d="M3.80159 9.32977L3.80115 9.32933C2.25973 9.17375 1.11923 9.00433 1.11923 7.95662C1.11923 7.4365 1.38707 7.05982 1.93768 6.80655C2.50396 6.54636 3.11515 6.50696 3.74892 6.50696C4.23771 6.50696 5.13322 6.58263 5.63767 7.08737C5.87189 7.3213 5.99091 7.69444 5.99091 8.06152L6.7677 8.06137C6.76784 7.49635 6.58813 6.93628 6.23176 6.58023C5.58147 5.92939 4.48844 5.79315 3.68552 5.79315C2.5833 5.79315 1.4962 6.03047 0.828807 6.69742C0.480086 7.04699 0.304164 7.46927 0.304164 7.95662C0.304164 9.77309 2.15323 9.92187 3.60501 10.0521C4.2923 10.1135 4.9409 10.1726 5.42247 10.3833C5.93186 10.6054 6.1699 10.9738 6.1699 11.5433C6.1699 11.9045 6.04933 12.208 5.81242 12.4444C5.24883 13.0076 4.08052 13.0679 3.65459 13.0679C2.60688 13.0679 1.78644 12.8416 1.34003 12.3944C1.01728 12.072 0.861284 11.6743 0.857462 11.11L0.060517 11.1101C0.0600793 11.8725 0.285577 12.4352 0.731991 12.8836C1.32413 13.4796 2.38074 13.7826 3.70504 13.7826C4.44838 13.7826 6.98952 13.6181 6.98952 11.5089C6.98952 9.65267 5.29616 9.48127 3.80159 9.32977Z" fill="white"/>
<path d="M16.2356 10.5162L17.8327 7.00946L19.4406 10.5162H16.2356ZM17.4733 5.94623L13.9401 13.6298H14.8085L15.901 11.2555H19.7707L20.8502 13.6298H21.7368L18.203 5.94623H17.4733Z" fill="white"/>
<path d="M14.2868 5.94623H7.55319V6.69774H10.5203V13.6298H11.3195V6.69774H14.2868V5.94623Z" fill="white"/>
<path d="M37.0266 10.5162L38.6339 7.00946L40.2312 10.5162H37.0266ZM38.2635 5.94623L34.7304 13.6298H35.6117L36.6917 11.2555H40.5613L41.6538 13.6298H42.5267L39.007 5.94623H38.2635Z" fill="white"/>
<path d="M75.8926 12.3572L70.3423 5.94623H69.5445V13.6298H70.344V7.21728L75.893 13.6298H76.6924V5.94623H75.8926V12.3572Z" fill="white"/>
<path d="M62.2769 10.5162L63.8848 7.00946L65.4813 10.5162H62.2769ZM63.5125 5.94623L59.9807 13.6298H60.8611L61.941 11.2555H65.811L66.9036 13.6298H67.7768L64.2569 5.94623H63.5125Z" fill="white"/>
<path d="M44.9719 5.94623H44.1725V13.6298H49.7106V12.878H44.9719V5.94623Z" fill="white"/>
<path d="M89.4397 12.878V10.0256H94.5653V9.28676H89.4397V6.69774H94.841V5.94623H88.6399V13.6298H94.8411V12.878H89.4397Z" fill="white"/>
<path d="M58.1665 5.94659H57.3671V13.6298H58.1665V5.94659Z" fill="white"/>
<path d="M51.6021 5.94623H50.8018V13.6298H56.3289V12.878H51.6021V5.94623Z" fill="white"/>
<path d="M82.7666 6.53364C84.3432 6.53364 85.4913 7.40545 85.7954 8.81586H86.64C86.4374 7.22486 85.02 5.78253 82.7666 5.78253C80.2896 5.78253 78.6027 7.35051 78.6027 9.77633V9.77817C78.6027 12.2038 80.2896 13.7718 82.7666 13.7718C85.0201 13.7718 86.4374 12.3296 86.64 10.7385H85.7954C85.4913 12.1489 84.3432 13.0209 82.7666 13.0209C80.3813 13.0209 79.4588 11.3461 79.457 9.77718C79.4588 8.20835 80.3813 6.53364 82.7666 6.53364Z" fill="white"/>
<path d="M112.729 10.5018C112.514 9.50718 112.366 8.478 112.293 7.43306C112.22 6.38397 112.223 5.35196 112.299 4.33331L114.295 7.29346L112.729 10.5018Z" fill="#DADADA"/>
<path d="M112.299 4.3334C113.268 4.64466 114.233 5.0307 115.175 5.49033C116.119 5.95145 117.011 6.47026 117.856 7.04533L114.294 7.29352L112.299 4.3334Z" fill="#9D9D9D"/>
<path d="M117.856 7.04523C117.102 7.72858 116.285 8.37145 115.416 8.95702C114.544 9.54484 113.649 10.058 112.729 10.5018L114.294 7.29343L117.856 7.04523Z" fill="#575757"/>
<path d="M109.769 13.1244C110.649 12.6127 111.582 12.1537 112.553 11.7617C113.528 11.3678 114.51 11.0521 115.503 10.8092L113.304 13.622L109.769 13.1244Z" fill="#DADADA"/>
<path d="M115.503 10.8094C115.506 11.827 115.438 12.8644 115.291 13.9017C115.145 14.9431 114.927 15.9517 114.641 16.9325L113.304 13.6222L115.503 10.8094Z" fill="#9D9D9D"/>
<path d="M114.641 16.9325C113.758 16.4266 112.894 15.8481 112.069 15.2029C111.24 14.5554 110.476 13.8625 109.769 13.1245L113.304 13.6221L114.641 16.9325Z" fill="#575757"/>
<path d="M106.36 11.12C107.119 11.7985 107.844 12.5437 108.517 13.3466C109.193 14.152 109.796 14.989 110.334 15.8577L106.98 14.6358L106.36 11.12Z" fill="#9D9D9D"/>
<path d="M110.334 15.8577C109.367 16.1754 108.359 16.4304 107.328 16.6119C106.292 16.7946 105.265 16.8989 104.244 16.9301L106.98 14.6358L110.334 15.8577Z" fill="#575757"/>
<path d="M104.244 16.9302C104.453 15.9344 104.736 14.9338 105.094 13.9494C105.454 12.9613 105.877 12.0199 106.361 11.1201L106.98 14.6359L104.244 16.9302Z" fill="#DADADA"/>
<path d="M107.213 7.25891C106.803 8.18973 106.317 9.10975 105.762 9.99785C105.205 10.8897 104.596 11.7224 103.936 12.5021L104.061 8.93409L107.213 7.25891Z" fill="#575757"/>
<path d="M103.935 12.502C103.335 11.6808 102.781 10.8008 102.289 9.87585C101.796 8.94725 101.379 8.00321 101.034 7.04181L104.061 8.93417L103.935 12.502Z" fill="#9D9D9D"/>
<path d="M101.034 7.04176C102.045 6.93195 103.085 6.89221 104.132 6.92901C105.182 6.9658 106.208 7.07706 107.213 7.25882L104.061 8.93444L101.034 7.04176Z" fill="#DADADA"/>
<path d="M111.149 6.87683C110.137 6.77372 109.112 6.59657 108.096 6.34303C107.076 6.08859 106.095 5.76648 105.15 5.37956L108.582 4.39636L111.149 6.87683Z" fill="#575757"/>
<path d="M105.15 5.37953C105.745 4.55449 106.411 3.75539 107.139 3.00215C107.869 2.24594 108.638 1.55813 109.446 0.932495L108.582 4.39634L105.15 5.37953Z" fill="#DADADA"/>
<path d="M109.446 0.932495C109.863 1.8608 110.222 2.83644 110.511 3.84368C110.8 4.85448 111.012 5.86455 111.149 6.87681L108.582 4.39631L109.446 0.932495Z" fill="#9D9D9D"/>
</svg>
